<?xml version="1.0" encoding="utf-8"?>
<!-- Generator: Adobe Illustrator 25.0.1, SVG Export Plug-In . SVG Version: 6.00 Build 0)  -->
<svg version="1.0"
	 id="svg3141" xmlns:cc="http://creativecommons.org/ns#" xmlns:dc="http://purl.org/dc/elements/1.1/" xmlns:inkscape="http://www.inkscape.org/namespaces/inkscape" xmlns:rdf="http://www.w3.org/1999/02/22-rdf-syntax-ns#" xmlns:sodipodi="http://sodipodi.sourceforge.net/DTD/sodipodi-0.dtd" xmlns:svg="http://www.w3.org/2000/svg"
	 xmlns="http://www.w3.org/2000/svg" xmlns:xlink="http://www.w3.org/1999/xlink" x="0px" y="0px" width="328.2px" height="328.2px"
	 viewBox="0 0 328.2 328.2" enable-background="new 0 0 328.2 328.2" xml:space="preserve">
<g id="g3149" transform="matrix(1.25,0,0,-1.25,0,394.275)" inkscape:groupmode="layer" inkscape:label="ink_ext_XXXXXX">
	<g id="g3151" transform="scale(0.1,0.1)">
		<path id="path3153" fill="#231F20" d="M2390.7,3082.3H235.2c-85.2,0-154.3-69.1-154.3-154.3v-814l485,135.5l322.8-133.9
			l-264.2,133.9c0,0-185.8,101.6-218.5,234.7c-32.7,133.2,133,285.1,133,285.1l599.3-76.7l-326,61.4c0,0,114.3,76.1,371.5,67.9
			c282.2-9.1,679.9-80.4,745.5-146c65.6-65.6,188-508.9,117.6-579.3c-33-33-454.8,70.5-454.8,70.5l351.9-111.6
			c0,0,195.2-447.9,71.7-833.1c0,0-268.7,145.8-481.3,433.7c176.2-368.8,464.8-487.1,464.8-487.1s-108.5-292-171.3-354.9
			L804.3,1254.2l-519.7-636h2106c85.2,0,154.3,69.1,154.3,154.3V2928C2545,3013.2,2475.9,3082.3,2390.7,3082.3"/>
	</g>
</g>
</svg>
